<?xml version="1.0" standalone="no"?>
<!DOCTYPE svg PUBLIC "-//W3C//DTD SVG 20010904//EN"
 "http://www.w3.org/TR/2001/REC-SVG-20010904/DTD/svg10.dtd">
<svg version="1.0" xmlns="http://www.w3.org/2000/svg"
 width="280.000000pt" height="300.000000pt" viewBox="0 0 280.000000 300.000000"
 preserveAspectRatio="xMidYMid meet">

<g transform="translate(0.000000,300.000000) scale(0.100000,-0.100000)"
fill="#000000" stroke="none">
<path d="M1230 2650 c-469 -90 -816 -459 -911 -970 -16 -86 -16 -306 0 -400
43 -251 166 -493 338 -663 167 -165 309 -245 528 -300 124 -30 341 -30 462 1
349 88 636 344 778 695 175 428 95 929 -204 1273 -166 193 -378 316 -624 363
-130 25 -239 25 -367 1z m-295 -399 l109 -74 71 16 c38 8 121 29 182 45 l113
29 181 -45 182 -46 34 20 c18 10 71 46 118 78 47 33 87 58 89 55 2 -2 -3 -29
-11 -59 -9 -35 -30 -76 -59 -113 l-45 -58 34 -38 c61 -68 82 -124 82 -226 0
-69 -5 -99 -19 -130 -39 -79 -38 -75 -4 -68 l30 6 -4 -254 c-6 -285 -12 -321
-89 -470 -39 -75 -102 -159 -119 -159 -5 0 -41 31 -80 68 l-70 69 16 47 c9 26
21 49 28 51 6 2 23 6 39 9 25 6 27 10 27 61 0 54 0 54 -35 61 -23 4 -40 15
-48 30 l-13 24 -29 -30 c-25 -26 -29 -39 -30 -88 -1 -69 -21 -109 -75 -152
-135 -107 -330 -18 -330 150 0 145 131 240 264 193 83 -30 82 -42 -6 -130
l-78 -77 -35 34 -35 34 -22 -21 -21 -21 53 -57 c30 -30 59 -54 66 -53 15 4
304 303 304 315 0 5 -15 24 -34 42 l-34 33 -32 -22 c-29 -21 -32 -21 -64 -6
-19 9 -38 16 -44 16 -12 0 -22 24 -22 56 0 24 -2 25 -57 22 -56 -3 -57 -4 -66
-38 -6 -29 -15 -38 -52 -53 -44 -18 -44 -18 -74 4 l-31 23 -35 -34 c-41 -40
-41 -43 -15 -81 21 -28 21 -29 2 -65 -13 -26 -29 -40 -53 -48 -33 -11 -34 -13
-34 -61 0 -48 1 -50 34 -61 34 -11 70 -59 71 -95 0 -9 -34 -47 -75 -84 -63
-56 -78 -65 -90 -55 -25 21 -102 142 -129 204 -51 114 -56 155 -56 425 l0 252
30 -16 c35 -18 37 -13 11 24 -78 109 -63 285 35 399 19 22 34 42 34 44 0 2
-15 21 -34 41 -19 20 -42 53 -51 73 -20 42 -33 119 -19 113 5 -2 58 -37 119
-78z m363 -1451 c33 -16 44 -28 49 -51 6 -33 39 -52 81 -47 27 3 38 17 46 59
4 19 15 29 43 38 21 7 43 14 50 17 6 3 46 -28 88 -69 l78 -74 -54 -41 c-30
-22 -72 -50 -94 -63 -136 -76 -166 -90 -185 -84 -34 11 -181 96 -249 144 l-64
45 79 73 c43 40 82 73 85 73 3 0 24 -9 47 -20z"/>
<path d="M1295 2173 c-55 -13 -103 -27 -107 -31 -4 -4 30 -33 77 -65 46 -31
96 -75 112 -97 15 -22 31 -40 34 -40 4 0 15 12 24 28 24 36 62 70 140 122 35
25 61 47 57 51 -12 10 -211 60 -229 58 -4 -1 -53 -12 -108 -26z"/>
<path d="M1013 2116 c-34 -6 -64 -14 -67 -17 -5 -5 200 -204 302 -294 20 -18
55 -75 92 -152 34 -69 65 -123 71 -121 13 4 81 129 98 179 11 35 96 124 299
314 40 38 69 72 65 76 -12 11 -134 29 -147 22 -6 -4 -55 -36 -109 -71 -97 -64
-146 -114 -182 -189 -9 -18 -19 -33 -23 -33 -4 0 -16 17 -27 38 -37 73 -88
124 -192 193 -58 38 -108 68 -112 68 -3 -1 -34 -7 -68 -13z"/>
<path d="M906 1983 c-35 -54 -49 -117 -41 -182 16 -128 108 -217 236 -228 58
-6 159 18 178 41 5 7 1 28 -10 54 l-19 44 -26 -21 c-33 -26 -103 -36 -149 -21
-110 36 -154 156 -94 258 l19 34 -27 29 c-16 16 -31 29 -35 29 -4 0 -19 -17
-32 -37z"/>
<path d="M1856 1991 l-30 -31 23 -46 c41 -82 13 -179 -66 -232 -39 -25 -129
-22 -174 5 l-36 21 -17 -34 c-9 -19 -16 -41 -16 -48 0 -25 80 -51 160 -51 64
0 82 4 122 27 140 83 181 271 85 391 l-22 28 -29 -30z"/>
<path d="M1036 1884 c-3 -9 -6 -33 -6 -54 0 -42 24 -74 69 -91 28 -11 91 6 91
25 0 15 -122 136 -137 136 -6 0 -14 -7 -17 -16z"/>
<path d="M1693 1837 c-56 -55 -65 -67 -55 -80 37 -44 123 -21 148 40 17 40 10
93 -14 101 -7 2 -42 -25 -79 -61z"/>
<path d="M893 1334 c4 -172 8 -219 24 -264 22 -63 63 -144 92 -180 23 -28 26
-24 10 17 -5 15 -17 58 -25 96 -12 59 -12 77 0 136 19 89 49 151 102 210 l44
49 -25 16 c-13 9 -26 16 -29 16 -2 0 -41 23 -86 51 -45 28 -89 53 -97 56 -13
5 -14 -19 -10 -203z"/>
<path d="M1808 1472 c-58 -37 -110 -70 -114 -75 -4 -4 8 -24 27 -45 47 -49 67
-83 90 -150 26 -75 26 -194 -1 -269 -33 -95 -9 -81 50 29 55 102 70 188 70
395 0 100 -3 183 -7 182 -5 -1 -56 -31 -115 -67z"/>
<path d="M1210 698 c0 -13 93 -75 168 -112 32 -17 33 -16 110 24 83 44 130 76
122 83 -3 3 -36 -5 -75 -19 -102 -35 -200 -28 -292 20 -25 12 -33 13 -33 4z"/>
</g>
</svg>
